<svg width="50" height="50" viewBox="0 0 50 50" fill="none" xmlns="http://www.w3.org/2000/svg">
<path d="M32.6784 34.5088H17.3216C16.3133 34.5088 15.3148 34.7074 14.3832 35.0933C13.4516 35.4792 12.6051 36.0448 11.8921 36.7578C11.1791 37.4708 10.6135 38.3173 10.2276 39.2489C9.84177 40.1805 9.64318 41.179 9.64319 42.1873C9.64319 43.8835 9.98547 44.6779 12.7146 45.2587C12.7146 45.2587 21.9023 46.875 25.0001 46.875C28.098 46.875 37.2857 45.2588 37.2857 45.2588C40.0148 44.6779 40.3571 43.8835 40.3571 42.1873C40.3571 40.1509 39.5481 38.1978 38.1081 36.7578C36.6681 35.3179 34.7151 34.5089 32.6786 34.5089L32.6784 34.5088Z" fill="url(#paint0_linear_532_1267)"/>
<path d="M25 39.1159C23.7781 39.1159 22.6063 38.6305 21.7423 37.7665C20.8783 36.9026 20.3929 35.7307 20.3929 34.5089V31.4375H29.607V34.5089C29.607 35.7307 29.1216 36.9026 28.2576 37.7665C27.3937 38.6305 26.2218 39.1159 25 39.1159Z" fill="#F2A783"/>
<path d="M25 39.1159C23.7781 39.1159 22.6063 38.6305 21.7423 37.7665C20.8783 36.9026 20.3929 35.7307 20.3929 34.5089V31.4375H29.607V34.5089C29.607 35.7307 29.1216 36.9026 28.2576 37.7665C27.3937 38.6305 26.2218 39.1159 25 39.1159Z" fill="url(#paint1_linear_532_1267)"/>
<path d="M35.6292 24.652C35.6559 24.4932 35.7315 24.3465 35.8455 24.2326C35.9594 24.1187 36.1061 24.0432 36.265 24.0166C36.9766 23.8901 37.6217 23.5189 38.0885 22.967C38.5553 22.4152 38.8146 21.7175 38.8213 20.9947V18.6912C38.8144 17.9653 38.5529 17.2649 38.0825 16.7121C37.6121 16.1593 36.9625 15.7891 36.2471 15.6662C36.0936 15.64 35.9514 15.5686 35.8387 15.4611C35.726 15.3536 35.648 15.215 35.6146 15.0629C35.309 13.6971 34.5477 12.4759 33.4559 11.6002C32.3641 10.7246 31.0067 10.2466 29.6072 10.2449H20.393C18.9934 10.2466 17.6361 10.7246 16.5442 11.6002C15.4524 12.4759 14.6911 13.6971 14.3856 15.0629C14.3522 15.215 14.2741 15.3536 14.1615 15.4611C14.0488 15.5686 13.9066 15.64 13.7531 15.6662C13.0377 15.7891 12.3881 16.1593 11.9177 16.7121C11.4472 17.2649 11.1857 17.9653 11.1788 18.6912V20.9947C11.1856 21.7175 11.4448 22.4151 11.9116 22.967C12.3784 23.5188 13.0234 23.8901 13.7351 24.0166C13.894 24.0432 14.0406 24.1187 14.1546 24.2326C14.2685 24.3465 14.3441 24.4932 14.3708 24.652H35.6292Z" fill="#F2A783"/>
<path d="M35.6292 24.652C35.6559 24.4932 35.7315 24.3465 35.8455 24.2326C35.9594 24.1187 36.1061 24.0432 36.265 24.0166C36.9766 23.8901 37.6217 23.5189 38.0885 22.967C38.5553 22.4152 38.8146 21.7175 38.8213 20.9947V18.6912C38.8144 17.9653 38.5529 17.2649 38.0825 16.7121C37.6121 16.1593 36.9625 15.7891 36.2471 15.6662C36.0936 15.64 35.9514 15.5686 35.8387 15.4611C35.726 15.3536 35.648 15.215 35.6146 15.0629C35.309 13.6971 34.5477 12.4759 33.4559 11.6002C32.3641 10.7246 31.0067 10.2466 29.6072 10.2449H20.393C18.9934 10.2466 17.6361 10.7246 16.5442 11.6002C15.4524 12.4759 14.6911 13.6971 14.3856 15.0629C14.3522 15.215 14.2741 15.3536 14.1615 15.4611C14.0488 15.5686 13.9066 15.64 13.7531 15.6662C13.0377 15.7891 12.3881 16.1593 11.9177 16.7121C11.4472 17.2649 11.1857 17.9653 11.1788 18.6912V20.9947C11.1856 21.7175 11.4448 22.4151 11.9116 22.967C12.3784 23.5188 13.0234 23.8901 13.7351 24.0166C13.894 24.0432 14.0406 24.1187 14.1546 24.2326C14.2685 24.3465 14.3441 24.4932 14.3708 24.652H35.6292Z" fill="url(#paint2_radial_532_1267)"/>
<path d="M15.017 24.4142L13.5545 15.6359C13.4484 14.9989 14.4115 14.8378 14.5178 15.4755L15.9803 24.2538L15.017 24.4142Z" fill="#EAF5FB"/>
<path d="M21.3601 20.2038C21.9574 19.6065 21.9574 18.6379 21.3601 18.0405C20.7627 17.4432 19.7941 17.4432 19.1968 18.0405C18.5994 18.6379 18.5994 19.6065 19.1968 20.2038C19.7941 20.8012 20.7627 20.8012 21.3601 20.2038Z" fill="#3D3C3B"/>
<path d="M30.8039 20.2039C31.4013 19.6065 31.4013 18.638 30.8039 18.0406C30.2065 17.4432 29.238 17.4432 28.6406 18.0406C28.0432 18.638 28.0432 19.6065 28.6406 20.2039C29.238 20.8013 30.2065 20.8013 30.8039 20.2039Z" fill="#3D3C3B"/>
<path d="M35.9629 24.1666H31.4979C29.848 24.1666 28.2625 23.6278 26.8778 22.731C26.2727 22.339 24.7071 21.7021 23.1187 22.731C21.7339 23.6278 20.1484 24.1665 18.4986 24.1665H14.0371C14.123 24.6906 15.1303 34.0783 24.9991 34.0783C33.0597 34.0783 35.3239 28.0854 35.9629 24.1666Z" fill="#EAF5FB"/>
<path d="M34.0195 24.2537L35.4821 15.4755C35.5884 14.8383 36.5515 14.9989 36.4454 15.636L34.9829 24.4142L34.0195 24.2537Z" fill="#B2C8CE"/>
<path d="M35.9629 24.1666H31.4979C29.848 24.1666 28.2625 23.6278 26.8778 22.731C26.2727 22.339 24.7071 21.7021 23.1187 22.731C21.7339 23.6278 20.1484 24.1665 18.4986 24.1665H14.0371C14.123 24.6906 15.1303 34.0783 24.9991 34.0783C33.0597 34.0783 35.3239 28.0854 35.9629 24.1666Z" fill="url(#paint3_radial_532_1267)"/>
<path d="M33.0876 4.09306C29.4721 3.0458 22.1447 2.57744 16.9124 4.09306C15.2572 4.57508 13.8033 5.58153 12.7693 6.961C11.7353 8.34048 11.1771 10.0184 11.1788 11.7424V19.7424C17.4347 10.127 32.567 10.1295 38.8213 19.7424V11.7424C38.823 10.0184 38.2649 8.34046 37.2309 6.96098C36.1968 5.5815 34.7429 4.57507 33.0876 4.09306Z" fill="#2ECC71"/>
<path d="M33.0876 4.09306C29.4721 3.0458 22.1447 2.57744 16.9124 4.09306C15.2572 4.57508 13.8033 5.58153 12.7693 6.961C11.7353 8.34048 11.1771 10.0184 11.1788 11.7424V19.7424C17.4347 10.127 32.567 10.1295 38.8213 19.7424V11.7424C38.823 10.0184 38.2649 8.34046 37.2309 6.96098C36.1968 5.5815 34.7429 4.57507 33.0876 4.09306Z" fill="url(#paint4_linear_532_1267)"/>
<path d="M34.1245 34.6468C31.8437 37.3968 28.5999 39.1159 25 39.1159C21.4001 39.1159 18.1563 37.3969 15.8755 34.6467C14.1221 34.9831 12.5406 35.92 11.4032 37.2962C10.2658 38.6724 9.64337 40.4019 9.64307 42.1873C9.64307 43.8835 9.98535 44.6779 12.7144 45.2587C12.7144 45.2587 21.9022 46.875 25 46.875C28.0979 46.875 37.2855 45.2587 37.2855 45.2587C40.0147 44.6779 40.3568 43.8835 40.3568 42.1873C40.3565 40.4019 39.7341 38.6724 38.5967 37.2963C37.4593 35.9201 35.8779 34.9832 34.1245 34.6468Z" fill="#2ECC71"/>
<path d="M34.1245 34.6468C31.8437 37.3968 28.5999 39.1159 25 39.1159C21.4001 39.1159 18.1563 37.3969 15.8755 34.6467C14.1221 34.9831 12.5406 35.92 11.4032 37.2962C10.2658 38.6724 9.64337 40.4019 9.64307 42.1873C9.64307 43.8835 9.98535 44.6779 12.7144 45.2587C12.7144 45.2587 21.9022 46.875 25 46.875C28.0979 46.875 37.2855 45.2587 37.2855 45.2587C40.0147 44.6779 40.3568 43.8835 40.3568 42.1873C40.3565 40.4019 39.7341 38.6724 38.5967 37.2963C37.4593 35.9201 35.8779 34.9832 34.1245 34.6468Z" fill="url(#paint5_linear_532_1267)"/>
<path d="M21.3601 20.2038C21.9574 19.6065 21.9574 18.6379 21.3601 18.0405C20.7627 17.4432 19.7941 17.4432 19.1968 18.0405C18.5994 18.6379 18.5994 19.6065 19.1968 20.2038C19.7941 20.8012 20.7627 20.8012 21.3601 20.2038Z" fill="url(#paint6_radial_532_1267)"/>
<path d="M30.8039 20.2039C31.4013 19.6065 31.4013 18.638 30.8039 18.0406C30.2065 17.4432 29.238 17.4432 28.6406 18.0406C28.0432 18.638 28.0432 19.6065 28.6406 20.2039C29.238 20.8013 30.2065 20.8013 30.8039 20.2039Z" fill="url(#paint7_radial_532_1267)"/>
<defs>
<linearGradient id="paint0_linear_532_1267" x1="25" y1="46.875" x2="25" y2="34.5088" gradientUnits="userSpaceOnUse">
<stop stop-color="#F8FAFB"/>
<stop offset="0.521" stop-color="#F6F9FA"/>
<stop offset="0.709" stop-color="#EFF3F6"/>
<stop offset="0.843" stop-color="#E4EAEF"/>
<stop offset="0.95" stop-color="#D3DDE5"/>
<stop offset="1" stop-color="#C8D5DE"/>
</linearGradient>
<linearGradient id="paint1_linear_532_1267" x1="25" y1="39.1159" x2="25" y2="31.4375" gradientUnits="userSpaceOnUse">
<stop stop-color="#F2A783" stop-opacity="0"/>
<stop offset="0.064" stop-color="#F0A17F" stop-opacity="0.123"/>
<stop offset="0.198" stop-color="#ED9777" stop-opacity="0.353"/>
<stop offset="0.333" stop-color="#EA8E71" stop-opacity="0.551"/>
<stop offset="0.468" stop-color="#E7876B" stop-opacity="0.713"/>
<stop offset="0.603" stop-color="#E58167" stop-opacity="0.839"/>
<stop offset="0.736" stop-color="#E47D64" stop-opacity="0.928"/>
<stop offset="0.869" stop-color="#E37B63" stop-opacity="0.982"/>
<stop offset="1" stop-color="#E37A62"/>
</linearGradient>
<radialGradient id="paint2_radial_532_1267" cx="0" cy="0" r="1" gradientUnits="userSpaceOnUse" gradientTransform="translate(9.76633 9.91923) scale(23.9482 23.9482)">
<stop stop-color="#F2A783" stop-opacity="0"/>
<stop offset="0.139" stop-color="#F2A682" stop-opacity="0.017"/>
<stop offset="0.272" stop-color="#F1A481" stop-opacity="0.068"/>
<stop offset="0.404" stop-color="#F0A07E" stop-opacity="0.153"/>
<stop offset="0.534" stop-color="#EE9B7A" stop-opacity="0.274"/>
<stop offset="0.664" stop-color="#EC9475" stop-opacity="0.429"/>
<stop offset="0.792" stop-color="#E98B6F" stop-opacity="0.618"/>
<stop offset="0.918" stop-color="#E58167" stop-opacity="0.839"/>
<stop offset="1" stop-color="#E37A62"/>
</radialGradient>
<radialGradient id="paint3_radial_532_1267" cx="0" cy="0" r="1" gradientUnits="userSpaceOnUse" gradientTransform="translate(10.5702 18.4755) scale(23.8715)">
<stop stop-color="#EAF5FB" stop-opacity="0"/>
<stop offset="0.18" stop-color="#E9F4FB" stop-opacity="0.014"/>
<stop offset="0.319" stop-color="#E6F2F9" stop-opacity="0.057"/>
<stop offset="0.443" stop-color="#E0EFF7" stop-opacity="0.13"/>
<stop offset="0.56" stop-color="#D8EBF5" stop-opacity="0.234"/>
<stop offset="0.67" stop-color="#CEE5F1" stop-opacity="0.367"/>
<stop offset="0.777" stop-color="#C1DEED" stop-opacity="0.531"/>
<stop offset="0.88" stop-color="#B2D5E7" stop-opacity="0.726"/>
<stop offset="0.978" stop-color="#A1CBE1" stop-opacity="0.945"/>
<stop offset="1" stop-color="#9DC9E0"/>
</radialGradient>
<linearGradient id="paint4_linear_532_1267" x1="11.1788" y1="11.4332" x2="38.8212" y2="11.4332" gradientUnits="userSpaceOnUse">
<stop stop-color="#56A5FC" stop-opacity="0"/>
<stop offset="0.775" stop-color="#427EC1" stop-opacity="0.772"/>
<stop offset="1" stop-color="#3C73B0"/>
</linearGradient>
<linearGradient id="paint5_linear_532_1267" x1="9.64307" y1="40.7608" x2="40.3569" y2="40.7608" gradientUnits="userSpaceOnUse">
<stop stop-color="#56A5FC" stop-opacity="0"/>
<stop offset="0.775" stop-color="#427EC1" stop-opacity="0.772"/>
<stop offset="1" stop-color="#3C73B0"/>
</linearGradient>
<radialGradient id="paint6_radial_532_1267" cx="0" cy="0" r="1" gradientUnits="userSpaceOnUse" gradientTransform="translate(18.2319 17.1378) scale(3.37666)">
<stop offset="0.282" stop-color="#3D3C3B" stop-opacity="0"/>
<stop offset="0.514" stop-color="#393837" stop-opacity="0.169"/>
<stop offset="0.826" stop-color="#2D2C2B" stop-opacity="0.646"/>
<stop offset="1" stop-color="#242423"/>
</radialGradient>
<radialGradient id="paint7_radial_532_1267" cx="0" cy="0" r="1" gradientUnits="userSpaceOnUse" gradientTransform="translate(27.6757 17.1379) scale(3.37666)">
<stop offset="0.282" stop-color="#3D3C3B" stop-opacity="0"/>
<stop offset="0.514" stop-color="#393837" stop-opacity="0.169"/>
<stop offset="0.826" stop-color="#2D2C2B" stop-opacity="0.646"/>
<stop offset="1" stop-color="#242423"/>
</radialGradient>
</defs>
</svg>
